<svg xmlns="http://www.w3.org/2000/svg" width="72" height="72" viewBox="0 0 72 72"><path style="fill:#13c100;fill-opacity:1;stroke:none;stroke-width:.229831px;stroke-linecap:butt;stroke-linejoin:miter;stroke-opacity:1" d="M79.36 72c-23.925 0-39.295 21.42-39.295 35.624 0 19.152 3.702 30.783 6.145 36.376h19.886l.02-.005s-9.423-17.673-9.423-32.168c0-16.017 12.884-29.621 29.04-29.47 15.003.139 20.202 11.831 26.225 19.788C113.239 92.653 103.058 72 79.359 72Z" transform="translate(-40.065 -72)"/><path style="fill:#169300;fill-opacity:1;stroke:none;stroke-width:.229831px;stroke-linecap:butt;stroke-linejoin:miter;stroke-opacity:1" d="M85.733 82.357c-16.156-.15-29.04 13.454-29.04 29.47 0 14.495 9.424 32.168 9.424 32.168l.047.005h19.11c-2.477-8.58-18.299-28.82-18.299-37.911 0-4.991 4.734-17.06 20.714-17.06 8.064 0 16.452 4.043 24.269 13.116-6.023-7.956-11.222-19.649-26.225-19.788z" transform="translate(-40.065 -72)"/></svg>
